<?xml version="1.0" encoding="UTF-8"?>
<svg xmlns="http://www.w3.org/2000/svg" xmlns:xlink="http://www.w3.org/1999/xlink" width="2501" height="2501" viewBox="0 0 2501 2501">
<path fill-rule="evenodd" fill="rgb(19.993591%, 19.993591%, 19.993591%)" fill-opacity="1" d="M 1071.050781 989.800781 L 1746.988281 989.800781 C 1787.75 989.800781 1820.988281 1023.050781 1820.988281 1063.808594 L 1820.988281 1605.609375 C 1820.988281 1646.367188 1787.75 1679.613281 1746.988281 1679.613281 L 754.6875 1679.613281 C 713.929688 1679.613281 680.6875 1646.367188 680.6875 1605.609375 L 680.6875 1063.808594 C 680.6875 1023.050781 713.929688 989.800781 754.6875 989.800781 L 1071.050781 989.800781 "/>
<path fill-rule="evenodd" fill="rgb(0%, 0%, 0%)" fill-opacity="1" d="M 1277.03125 955.421875 L 1214.578125 855.488281 C 1200.660156 833.21875 1178.089844 820.710938 1151.820312 820.710938 L 754.6875 820.710938 C 713.929688 820.710938 680.6875 853.949219 680.6875 894.710938 L 680.6875 984.710938 C 700.078125 966.558594 726.109375 955.421875 754.6875 955.421875 L 1277.03125 955.421875 "/>
</svg>
